<?xml version="1.0" standalone="no"?>
<!DOCTYPE svg PUBLIC "-//W3C//DTD SVG 20010904//EN"
 "http://www.w3.org/TR/2001/REC-SVG-20010904/DTD/svg10.dtd">
<svg version="1.0" xmlns="http://www.w3.org/2000/svg"
 width="536.000000pt" height="536.000000pt" viewBox="0 0 536.000000 536.000000"
 preserveAspectRatio="xMidYMid meet">
<metadata>
Created by potrace 1.14, written by Peter Selinger 2001-2017
</metadata>
<g transform="translate(0.000000,536.000000) scale(0.100000,-0.100000)"
fill="#000000" stroke="none">
<path d="M1335 5290 c-58 -20 -133 -59 -281 -147 -38 -22 -85 -50 -104 -60
-19 -11 -129 -75 -243 -142 -115 -66 -213 -121 -218 -121 -5 0 -9 -4 -9 -10 0
-5 -4 -10 -9 -10 -12 0 -392 -220 -409 -237 -7 -7 -18 -16 -25 -20 -39 -25
-47 -91 -18 -140 19 -30 99 -93 119 -93 5 0 20 -8 33 -18 13 -11 49 -32 79
-49 30 -17 79 -44 108 -62 29 -17 57 -31 62 -31 6 0 10 -4 10 -10 0 -5 4 -10
9 -10 7 0 619 -351 711 -408 14 -9 25 -14 25 -11 0 2 14 -6 30 -17 143 -101
353 -108 497 -17 21 12 40 23 43 23 2 0 29 16 59 35 30 19 58 35 61 35 3 0 31
16 61 35 30 19 56 35 58 35 3 0 54 29 115 65 60 36 112 65 116 65 3 0 11 5 18
11 18 15 351 207 355 204 2 -2 3 -133 3 -291 0 -222 -3 -290 -12 -293 -19 -6
-69 -63 -80 -89 -29 -74 8 -173 80 -211 58 -31 160 -13 203 35 65 73 53 187
-24 248 l-33 25 -1 330 -1 329 71 41 c84 48 96 58 119 91 36 52 8 141 -55 175
-13 7 -85 49 -162 94 -76 44 -142 81 -147 81 -5 0 -9 4 -9 9 0 5 -9 12 -20 16
-10 3 -60 31 -110 61 -50 30 -92 54 -94 54 -2 0 -45 25 -95 55 -51 30 -93 55
-95 55 -2 0 -104 59 -227 131 -191 112 -274 157 -274 149 0 -2 -16 4 -35 12
-50 21 -192 20 -255 -2z"/>
<path d="M3204 5108 c-62 -16 -127 -71 -159 -133 l-30 -59 0 -965 c0 -901 1
-969 18 -1012 29 -76 94 -134 174 -157 31 -9 280 -12 987 -12 1069 1 1003 -4
1087 80 85 85 80 16 77 1116 -3 1094 4 996 -84 1081 -77 73 -27 70 -1089 70
-522 0 -964 -4 -981 -9z"/>
<path d="M580 3896 c-6 -8 -12 -22 -14 -32 -3 -11 -10 -32 -16 -49 -7 -16 -14
-41 -17 -55 -2 -14 -8 -43 -13 -65 -10 -44 -7 -279 4 -335 6 -28 22 -91 31
-120 26 -82 113 -242 168 -307 154 -182 367 -305 587 -340 83 -13 249 -11 325
3 249 47 452 174 604 378 67 90 139 243 157 331 2 11 6 31 9 45 26 122 24 311
-6 406 -5 17 -12 42 -14 55 -3 13 -12 41 -21 62 l-17 37 -41 -24 c-23 -13 -59
-34 -81 -46 -22 -12 -44 -26 -50 -30 -5 -4 -30 -19 -55 -32 -25 -14 -72 -41
-105 -60 -33 -19 -71 -41 -85 -49 -14 -8 -27 -17 -30 -20 -3 -3 -12 -8 -20
-12 -8 -3 -37 -20 -65 -36 -76 -46 -207 -111 -235 -117 -102 -22 -213 -11
-300 30 -56 26 -81 40 -275 154 -59 34 -111 62 -116 62 -5 0 -9 5 -9 10 0 6
-4 10 -9 10 -4 0 -44 20 -87 46 -104 59 -113 65 -156 91 -30 18 -38 20 -48 9z"/>
<path d="M485 2387 c-48 -12 -108 -53 -141 -99 -53 -71 -52 -58 -50 -1088 l1
-955 23 -43 c33 -62 65 -95 120 -123 l47 -24 967 -3 c948 -2 967 -2 1020 18
63 23 110 68 143 135 21 45 28 120 26 300 0 6 0 48 -1 95 0 47 -1 108 -1 135
0 78 0 175 0 230 1 58 1 177 0 250 0 72 0 172 0 230 1 58 1 177 0 250 -1 79 0
176 0 230 3 153 -7 282 -23 320 -24 54 -94 118 -148 135 -36 12 -207 14 -993
15 -560 1 -966 -3 -990 -8z"/>
<path d="M3237 2394 c-1 -2 -15 -5 -31 -8 -33 -6 -99 -47 -132 -83 -13 -14
-31 -46 -41 -71 -17 -44 -18 -107 -18 -1012 0 -955 1 -965 21 -1010 29 -64 65
-102 120 -130 l49 -25 972 -3 c962 -2 972 -2 1020 19 61 26 109 71 136 129
l22 45 0 980 c0 946 -1 981 -19 1020 -11 22 -37 57 -59 78 -79 76 -1 71 -1074
72 -530 1 -964 0 -966 -1z"/>
</g>
</svg>
